<svg xmlns="http://www.w3.org/2000/svg" width="1494.575" height="509.427" viewBox="0 0 1494.575 509.427">
  <g id="Grupo_1435" data-name="Grupo 1435" transform="translate(-3420.425 2027.459)">
    <g id="Grupo_1431" data-name="Grupo 1431" transform="translate(2995 -2002.926)">
      <path id="Trazado_11108" data-name="Trazado 11108" d="M0,0H1494.575V509.427H0Z" transform="translate(425.425 -24.533)" fill="#92d4e3" opacity="0.992"/>
    </g>
    <path id="Sustracci贸n_7" data-name="Sustracci贸n 7" d="M-3280.662,1379.5h-25.27l-6.366-13.352a10.508,10.508,0,0,0,2.006-1.7,6.414,6.414,0,0,1,2.733-1.963,2.454,2.454,0,0,1,.477-.045,8.347,8.347,0,0,1,2.88.816l.014.006a8.317,8.317,0,0,0,2.845.811,2.1,2.1,0,0,0,.822-.153c1.045-.435,1.615-1.8,2.166-3.117a6.516,6.516,0,0,1,1.8-2.9,6.49,6.49,0,0,1,3.377-.572,15.826,15.826,0,0,0,1.907-.088l10.609,22.254Zm-40.45,0h-25.268l10.609-22.255a15.819,15.819,0,0,0,1.907.088,6.494,6.494,0,0,1,3.377.572,6.534,6.534,0,0,1,1.8,2.907q.082.2.165.393c.491,1.157,1.05,2.321,2,2.719a2.1,2.1,0,0,0,.822.153,8.324,8.324,0,0,0,2.845-.811l.015-.006a8.346,8.346,0,0,1,2.881-.816,2.45,2.45,0,0,1,.476.045,6.417,6.417,0,0,1,2.737,1.965,10.545,10.545,0,0,0,2,1.7l-6.365,13.352Zm7.279-15.269h0a6.3,6.3,0,0,1-2.914-2.038,6.424,6.424,0,0,0-2.736-1.967,2.458,2.458,0,0,0-.476-.045,8.347,8.347,0,0,0-2.881.816l-.014.006a8.332,8.332,0,0,1-2.846.811,2.1,2.1,0,0,1-.821-.152c-.948-.4-1.507-1.562-2-2.719l-.169-.4a6.5,6.5,0,0,0-1.8-2.9,6.5,6.5,0,0,0-3.369-.573c-.288,0-.585,0-.872-.013a4.09,4.09,0,0,1-2.807-.8,4.067,4.067,0,0,1-.8-2.757c-.01-.3-.012-.619-.014-.924v-.008a6.57,6.57,0,0,0-.571-3.394,4.582,4.582,0,0,0-1.91-1.385c-.314-.145-.646-.285-.967-.42-1.316-.555-2.677-1.128-3.111-2.18-.423-1.022.125-2.375.654-3.683a6.624,6.624,0,0,0,.773-3.39,6.445,6.445,0,0,0-1.955-2.746c-1.009-1.025-2.052-2.085-2.052-3.242s1.043-2.218,2.052-3.243a6.443,6.443,0,0,0,1.955-2.748,2.457,2.457,0,0,0,.034-.72,9.671,9.671,0,0,0-.807-2.669c-.53-1.308-1.077-2.661-.654-3.685.432-1.05,1.789-1.622,3.1-2.175a6.476,6.476,0,0,0,2.887-1.808,6.584,6.584,0,0,0,.571-3.4c.01-1.423.02-2.894.811-3.688s2.253-.8,3.668-.813a6.492,6.492,0,0,0,3.38-.572,6.53,6.53,0,0,0,1.8-2.9c.551-1.319,1.121-2.683,2.165-3.118a2.1,2.1,0,0,1,.823-.153,8.317,8.317,0,0,1,2.844.81,9.546,9.546,0,0,0,2.658.811c.085.008.17.012.253.012a2.392,2.392,0,0,0,.461-.044,6.42,6.42,0,0,0,2.736-1.964c1.02-1.013,2.075-2.06,3.226-2.06s2.208,1.048,3.229,2.061a6.421,6.421,0,0,0,2.734,1.964,2.458,2.458,0,0,0,.476.044,8.352,8.352,0,0,0,2.882-.816l.014-.006a8.315,8.315,0,0,1,2.845-.811,2.1,2.1,0,0,1,.822.153c1.043.435,1.614,1.8,2.165,3.115.136.326.277.662.425.983a4.2,4.2,0,0,0,1.376,1.922,6.516,6.516,0,0,0,3.391.572c.3,0,.614,0,.914.013a3.994,3.994,0,0,1,2.743.8c.792.794.8,2.265.81,3.687a6.578,6.578,0,0,0,.571,3.4,6.483,6.483,0,0,0,2.89,1.81l.393.167c1.153.491,2.312,1.051,2.706,2.009.423,1.024-.125,2.377-.655,3.685a6.629,6.629,0,0,0-.774,3.386,6.459,6.459,0,0,0,1.956,2.747c1.009,1.026,2.052,2.086,2.052,3.245s-1.043,2.218-2.052,3.243a6.457,6.457,0,0,0-1.956,2.745,6.636,6.636,0,0,0,.774,3.388c.53,1.309,1.078,2.663.655,3.686-.432,1.05-1.79,1.623-3.1,2.178a6.492,6.492,0,0,0-2.886,1.807,6.569,6.569,0,0,0-.571,3.4c-.009,1.422-.019,2.893-.81,3.687a4.1,4.1,0,0,1-2.807.8c-.287.009-.584.011-.872.013a6.493,6.493,0,0,0-3.37.573,6.514,6.514,0,0,0-1.8,2.9c-.552,1.319-1.122,2.682-2.166,3.117a2.1,2.1,0,0,1-.822.152,8.318,8.318,0,0,1-2.845-.811l-.013-.006a8.351,8.351,0,0,0-2.881-.816,2.462,2.462,0,0,0-.477.045,6.421,6.421,0,0,0-2.734,1.965,6.3,6.3,0,0,1-2.917,2.039l-.312-.652-.311.652Zm.311-61.612a27.088,27.088,0,0,0-10.655,2.162,27.341,27.341,0,0,0-4.65,2.536,27.617,27.617,0,0,0-4.051,3.359,27.655,27.655,0,0,0-3.343,4.071,27.54,27.54,0,0,0-2.524,4.672,27.447,27.447,0,0,0-2.151,10.707,27.415,27.415,0,0,0,2.3,11.045,27.572,27.572,0,0,0,2.688,4.784,27.726,27.726,0,0,0,3.552,4.129,27.36,27.36,0,0,0,7.6,5.131,27.056,27.056,0,0,0,9.122,2.336c.686.054,1.4.081,2.115.081s1.43-.027,2.116-.081a27.057,27.057,0,0,0,9.122-2.336,27.351,27.351,0,0,0,7.6-5.131,27.611,27.611,0,0,0,3.554-4.129,27.546,27.546,0,0,0,2.688-4.784,27.421,27.421,0,0,0,2.3-11.045,27.445,27.445,0,0,0-2.151-10.707,27.555,27.555,0,0,0-2.524-4.672,27.649,27.649,0,0,0-3.343-4.071,27.617,27.617,0,0,0-4.051-3.359,27.341,27.341,0,0,0-4.65-2.536A27.094,27.094,0,0,0-3313.522,1302.619Zm0,51.985a24.463,24.463,0,0,1-5.138-.545,24.247,24.247,0,0,1-5.424-1.87,24.37,24.37,0,0,1-4.76-3.033,24.6,24.6,0,0,1-3.738-3.785,24.547,24.547,0,0,1-2.848-4.53,24.416,24.416,0,0,1-1.815-5.13,24.711,24.711,0,0,1-.637-5.585,24.428,24.428,0,0,1,1.915-9.528,24.4,24.4,0,0,1,5.221-7.781,24.271,24.271,0,0,1,7.743-5.246,24.106,24.106,0,0,1,9.481-1.923,24.113,24.113,0,0,1,9.483,1.923,24.276,24.276,0,0,1,7.744,5.246,24.4,24.4,0,0,1,5.221,7.781,24.428,24.428,0,0,1,1.915,9.528,24.714,24.714,0,0,1-.637,5.585,24.447,24.447,0,0,1-1.815,5.131,24.556,24.556,0,0,1-2.85,4.531,24.585,24.585,0,0,1-3.74,3.786,24.413,24.413,0,0,1-4.759,3.031,24.144,24.144,0,0,1-5.421,1.868A24.386,24.386,0,0,1-3313.522,1354.6Zm-12.861-26.116a3.194,3.194,0,0,0-2.279.948l-.045.047a3.223,3.223,0,0,0-.944,2.288,3.224,3.224,0,0,0,.944,2.289l7.428,7.465a3.367,3.367,0,0,0,2.4,1,3.368,3.368,0,0,0,2.4-1l18.138-18.226a3.224,3.224,0,0,0,.944-2.29,3.222,3.222,0,0,0-.944-2.289l-.047-.045a3.192,3.192,0,0,0-2.278-.948,3.192,3.192,0,0,0-2.278.948l-15.328,15.4a.855.855,0,0,1-.611.254.855.855,0,0,1-.611-.254l-4.619-4.641A3.193,3.193,0,0,0-3326.384,1328.488Z" transform="translate(6809.559 -2942)" fill="#b8e9f4" stroke="rgba(0,0,0,0)" stroke-miterlimit="10" stroke-width="1"/>
    <path id="Sustracci贸n_6" data-name="Sustracci贸n 6" d="M-3258.47,1497.4v0h0l-7.837-16.209-17.553,4.058,16.777-34.994a19.673,19.673,0,0,0,2.354.108c1.549.01,3.152.021,4.174.7s1.628,2.148,2.227,3.572l.009.021q.1.231.194.46c.606,1.422,1.3,2.851,2.467,3.34a2.607,2.607,0,0,0,1.015.187,10.326,10.326,0,0,0,3.515-1l.018-.007a10.375,10.375,0,0,1,3.56-1,3.049,3.049,0,0,1,.589.055c1.171.232,2.294,1.341,3.38,2.414a13.024,13.024,0,0,0,2.472,2.084l-17.36,36.209Zm37.747,0h0l-17.361-36.209a12.989,12.989,0,0,0,2.476-2.085c1.086-1.073,2.208-2.181,3.378-2.413a3.046,3.046,0,0,1,.588-.055,10.372,10.372,0,0,1,3.559,1l.016.007a10.322,10.322,0,0,0,3.515,1,2.608,2.608,0,0,0,1.015-.187c1.291-.535,1.995-2.21,2.676-3.829.6-1.421,1.215-2.889,2.224-3.564s2.624-.692,4.174-.7a19.675,19.675,0,0,0,2.355-.108l16.777,34.994-17.555-4.058-7.837,16.209Zm-19.259-38.565h0c-1.271-.2-2.455-1.372-3.6-2.5-1.086-1.073-2.209-2.184-3.379-2.416a3.049,3.049,0,0,0-.589-.055,10.371,10.371,0,0,0-3.56,1l-.017.007a10.326,10.326,0,0,1-3.515,1,2.6,2.6,0,0,1-1.015-.187c-1.171-.489-1.861-1.918-2.467-3.34q-.1-.23-.195-.461l-.016-.038c-.6-1.417-1.212-2.882-2.219-3.554s-2.617-.692-4.163-.7c-.354,0-.72-.005-1.077-.016a5.071,5.071,0,0,1-3.468-.984,4.978,4.978,0,0,1-.985-3.387c-.012-.376-.015-.765-.017-1.141-.011-1.551-.021-3.153-.705-4.174a5.667,5.667,0,0,0-2.358-1.7c-.387-.178-.8-.35-1.194-.516-1.626-.682-3.309-1.386-3.844-2.678-.522-1.256.154-2.917.808-4.525.589-1.447,1.2-2.943.955-4.165-.232-1.168-1.342-2.289-2.415-3.374-1.247-1.259-2.536-2.561-2.536-3.983s1.289-2.725,2.535-3.985c1.074-1.085,2.184-2.207,2.416-3.376a3.009,3.009,0,0,0,.042-.884,11.817,11.817,0,0,0-1-3.279c-.654-1.608-1.33-3.268-.808-4.526.533-1.289,2.209-1.992,3.83-2.672,1.421-.6,2.891-1.213,3.567-2.221s.695-2.623.706-4.174c.012-1.747.024-3.554,1-4.53s2.784-.987,4.532-1c1.551-.01,3.155-.021,4.176-.7s1.625-2.144,2.223-3.565c.681-1.621,1.385-3.3,2.675-3.831a2.608,2.608,0,0,1,1.017-.188,10.323,10.323,0,0,1,3.514.995,11.841,11.841,0,0,0,3.282,1c.107.01.212.015.314.015a2.935,2.935,0,0,0,.569-.054c1.171-.232,2.293-1.34,3.379-2.413,1.26-1.244,2.563-2.531,3.985-2.531s2.728,1.287,3.988,2.532c1.085,1.072,2.208,2.181,3.378,2.412a3.051,3.051,0,0,0,.588.055,10.363,10.363,0,0,0,3.56-1l.017-.007a10.321,10.321,0,0,1,3.514-1,2.6,2.6,0,0,1,1.016.188c1.29.534,1.994,2.208,2.675,3.826l0,.007c.168.4.342.813.522,1.2a5.609,5.609,0,0,0,1.7,2.361c1.024.684,2.634.694,4.191.7.373,0,.758,0,1.128.016a4.948,4.948,0,0,1,3.389.981c.977.975.989,2.781,1,4.528.01,1.551.02,3.154.7,4.175s2.146,1.626,3.568,2.222l.021.009.468.2c1.425.6,2.856,1.291,3.343,2.467.522,1.258-.155,2.92-.81,4.527-.589,1.445-1.2,2.939-.955,4.16.232,1.169,1.342,2.29,2.415,3.375,1.247,1.26,2.536,2.563,2.536,3.986s-1.289,2.724-2.536,3.984c-1.073,1.084-2.183,2.205-2.415,3.373-.242,1.222.367,2.717.956,4.163.655,1.608,1.332,3.271.81,4.527-.534,1.29-2.211,1.994-3.833,2.675-1.421.6-2.89,1.213-3.566,2.22s-.694,2.623-.7,4.173c-.012,1.748-.023,3.554-1,4.529a5.078,5.078,0,0,1-3.469.984c-.356.011-.723.014-1.077.016-1.547.012-3.146.024-4.163.7s-1.627,2.144-2.224,3.564c-.681,1.62-1.385,3.294-2.675,3.829a2.606,2.606,0,0,1-1.015.188,10.314,10.314,0,0,1-3.514-1l-.018-.007a10.368,10.368,0,0,0-3.559-1,3.048,3.048,0,0,0-.588.055c-1.17.232-2.292,1.342-3.378,2.415-1.146,1.132-2.331,2.3-3.6,2.5l-.385-.8-.385.8Zm-22.883-17.38a33.761,33.761,0,0,0,9.386,6.3,33.574,33.574,0,0,0,11.269,2.87c.847.066,1.726.1,2.613.1s1.766-.034,2.613-.1a33.575,33.575,0,0,0,11.269-2.87,33.78,33.78,0,0,0,9.388-6.3h0a34.079,34.079,0,0,0,4.388-5.072,33.81,33.81,0,0,0,3.32-5.877,33.62,33.62,0,0,0,2.1-6.532,34.013,34.013,0,0,0,.734-7.037,33.555,33.555,0,0,0-2.657-13.153,33.787,33.787,0,0,0-3.118-5.74,34,34,0,0,0-4.129-5,34.059,34.059,0,0,0-5-4.126,33.846,33.846,0,0,0-5.745-3.116,33.631,33.631,0,0,0-13.164-2.656,33.625,33.625,0,0,0-13.163,2.656,33.839,33.839,0,0,0-5.745,3.116,34.07,34.07,0,0,0-5,4.126,34.025,34.025,0,0,0-4.129,5,33.789,33.789,0,0,0-3.118,5.74,33.555,33.555,0,0,0-2.658,13.153,34,34,0,0,0,.735,7.037,33.593,33.593,0,0,0,2.1,6.532,33.785,33.785,0,0,0,3.321,5.877,34.066,34.066,0,0,0,4.388,5.072Zm23.268,5.553a30.414,30.414,0,0,1-6.347-.669,30.073,30.073,0,0,1-6.7-2.3,30.123,30.123,0,0,1-5.881-3.726,30.274,30.274,0,0,1-4.618-4.65,30.12,30.12,0,0,1-3.519-5.565,29.9,29.9,0,0,1-2.242-6.3,30.2,30.2,0,0,1-.787-6.861,29.863,29.863,0,0,1,2.365-11.705,30.051,30.051,0,0,1,2.775-5.108,30.3,30.3,0,0,1,3.675-4.451,30.323,30.323,0,0,1,4.454-3.672,30.106,30.106,0,0,1,5.112-2.772,29.926,29.926,0,0,1,11.714-2.363,29.931,29.931,0,0,1,11.715,2.363,30.112,30.112,0,0,1,5.112,2.772,30.3,30.3,0,0,1,4.454,3.672,30.281,30.281,0,0,1,3.675,4.451,30.034,30.034,0,0,1,2.775,5.108,29.862,29.862,0,0,1,2.365,11.705,30.193,30.193,0,0,1-.787,6.862,29.9,29.9,0,0,1-2.242,6.3,30.131,30.131,0,0,1-3.521,5.566,30.283,30.283,0,0,1-4.621,4.651,30.177,30.177,0,0,1-5.879,3.724,29.952,29.952,0,0,1-6.7,2.295A30.315,30.315,0,0,1-3239.6,1447.009Zm-15.89-32.083a3.956,3.956,0,0,0-2.815,1.165l-.055.058a3.95,3.95,0,0,0-1.166,2.812,3.948,3.948,0,0,0,1.166,2.811l9.176,9.171a4.171,4.171,0,0,0,2.968,1.229,4.172,4.172,0,0,0,2.969-1.229l22.409-22.39a3.95,3.95,0,0,0,1.166-2.812,3.949,3.949,0,0,0-1.166-2.812l-.058-.056a3.955,3.955,0,0,0-2.813-1.165,3.955,3.955,0,0,0-2.813,1.165l-18.936,18.921a1.061,1.061,0,0,1-.755.313,1.061,1.061,0,0,1-.755-.313l-5.706-5.7A3.955,3.955,0,0,0-3255.486,1414.926Z" transform="translate(8065 -3183)" fill="#b8e9f4" stroke="rgba(0,0,0,0)" stroke-miterlimit="10" stroke-width="1"/>
  </g>
</svg>
